<?xml version="1.0" encoding="UTF-8" standalone="no"?><svg xmlns="http://www.w3.org/2000/svg" xmlns:xlink="http://www.w3.org/1999/xlink" contentScriptType="application/ecmascript" contentStyleType="text/css" height="236px" preserveAspectRatio="none" style="width:388px;height:236px;" version="1.1" viewBox="0 0 388 236" width="388px" zoomAndPan="magnify"><defs><filter height="300%" id="fvgrwa2xmd0j1" width="300%" x="-1" y="-1"><feGaussianBlur result="blurOut" stdDeviation="2.0"/><feColorMatrix in="blurOut" result="blurOut2" type="matrix" values="0 0 0 0 0 0 0 0 0 0 0 0 0 0 0 0 0 0 .4 0"/><feOffset dx="4.0" dy="4.0" in="blurOut2" result="blurOut3"/><feBlend in="SourceGraphic" in2="blurOut3" mode="normal"/></filter></defs><g><text fill="#000000" font-family="sans-serif" font-size="18" lengthAdjust="spacingAndGlyphs" textLength="122" x="136.5" y="16.708">Write Finalize</text><!--entity ExistingReaders--><ellipse cx="316" cy="38.9531" fill="#FEFECE" filter="url(#fvgrwa2xmd0j1)" rx="8" ry="8" style="stroke: #A80036; stroke-width: 2.0;"/><path d="M316,46.9531 L316,73.9531 M303,54.9531 L329,54.9531 M316,73.9531 L303,88.9531 M316,73.9531 L329,88.9531 " fill="none" filter="url(#fvgrwa2xmd0j1)" style="stroke: #A80036; stroke-width: 2.0;"/><text fill="#000000" font-family="sans-serif" font-size="14" lengthAdjust="spacingAndGlyphs" textLength="111" x="260.5" y="108.9482">ExistingReaders</text><!--entity NewReaders--><ellipse cx="50" cy="38.9531" fill="#FEFECE" filter="url(#fvgrwa2xmd0j1)" rx="8" ry="8" style="stroke: #A80036; stroke-width: 2.0;"/><path d="M50,46.9531 L50,73.9531 M37,54.9531 L63,54.9531 M50,73.9531 L37,88.9531 M50,73.9531 L63,88.9531 " fill="none" filter="url(#fvgrwa2xmd0j1)" style="stroke: #A80036; stroke-width: 2.0;"/><text fill="#000000" font-family="sans-serif" font-size="14" lengthAdjust="spacingAndGlyphs" textLength="88" x="6" y="108.9482">NewReaders</text><!--entity AcidPtr--><rect fill="#FEFECE" filter="url(#fvgrwa2xmd0j1)" height="36.2969" rx="35" ry="35" style="stroke: #000000; stroke-width: 1.5;" width="68" x="16" y="188.9531"/><text fill="#000000" font-family="sans-serif" font-size="14" lengthAdjust="spacingAndGlyphs" textLength="48" x="26" y="211.9482">AcidPtr</text><!--entity Data--><rect fill="#FEFECE" filter="url(#fvgrwa2xmd0j1)" height="22.2969" style="stroke: #000000; stroke-width: 1.5;" width="61" x="285.5" y="195.9531"/><text fill="#000000" font-family="sans-serif" font-size="14" lengthAdjust="spacingAndGlyphs" textLength="41" x="295.5" y="211.9482">x=foo</text><!--entity DataPrime--><rect fill="#FEFECE" filter="url(#fvgrwa2xmd0j1)" height="22.2969" style="stroke: #000000; stroke-width: 1.5;" width="61" x="189.5" y="195.9531"/><text fill="#000000" font-family="sans-serif" font-size="14" lengthAdjust="spacingAndGlyphs" textLength="41" x="199.5" y="211.9482">x=bar</text><!--link ExistingReaders to Data--><path d="M316,112.1731 C316,138.5231 316,171.3331 316,190.3431 " fill="none" id="ExistingReaders-Data" style="stroke: #A80036; stroke-width: 1.0;"/><polygon fill="#A80036" points="316,195.7731,320,186.7731,316,190.7731,312,186.7731,316,195.7731" style="stroke: #A80036; stroke-width: 1.0;"/><text fill="#000000" font-family="sans-serif" font-size="13" lengthAdjust="spacingAndGlyphs" textLength="59" x="317" y="155.02">read only</text><!--link AcidPtr to DataPrime--><path d="M84.4,206.9531 C113.36,206.9531 154.62,206.9531 184.01,206.9531 " fill="none" id="AcidPtr-DataPrime" style="stroke: #A80036; stroke-width: 1.0;"/><polygon fill="#A80036" points="189.36,206.9531,180.36,202.9531,184.36,206.9531,180.36,210.9531,189.36,206.9531" style="stroke: #A80036; stroke-width: 1.0;"/><text fill="#000000" font-family="sans-serif" font-size="13" lengthAdjust="spacingAndGlyphs" textLength="69" x="102.25" y="200.02">shared_ptr</text><!--link NewReaders to AcidPtr--><path d="M50,112.1731 C50,135.6331 50,164.2331 50,183.6331 " fill="none" id="NewReaders-AcidPtr" style="stroke: #A80036; stroke-width: 1.0;"/><polygon fill="#A80036" points="50,188.8531,54,179.8531,50,183.8531,46,179.8531,50,188.8531" style="stroke: #A80036; stroke-width: 1.0;"/><text fill="#000000" font-family="sans-serif" font-size="13" lengthAdjust="spacingAndGlyphs" textLength="59" x="51" y="155.02">read only</text><!--
@startuml
title Write Finalize

actor ExistingReaders
actor NewReaders
storage AcidPtr
card "x=foo" as Data
card "x=bar" as DataPrime

ExistingReaders - -> Data : read only
AcidPtr -> DataPrime : shared_ptr
NewReaders - -> AcidPtr : read only

@enduml

PlantUML version 1.2018.01(Sun Jan 28 18:08:22 GMT 2018)
(APACHE source distribution)
Java Runtime: OpenJDK Runtime Environment
JVM: OpenJDK 64-Bit Server VM
Java Version: 11.0.9.1+11
Operating System: Linux
OS Version: 5.10.7-200.fc33.x86_64
Default Encoding: UTF-8
Language: en
Country: IE
--></g></svg>