<?xml version="1.0" encoding="UTF-8" standalone="no"?><svg xmlns="http://www.w3.org/2000/svg" xmlns:xlink="http://www.w3.org/1999/xlink" contentScriptType="application/ecmascript" contentStyleType="text/css" height="251px" preserveAspectRatio="none" style="width:963px;height:251px;" version="1.1" viewBox="0 0 963 251" width="963px" zoomAndPan="magnify"><defs><filter height="300%" id="f11g0dv1xvzt4q" width="300%" x="-1" y="-1"><feGaussianBlur result="blurOut" stdDeviation="2.0"/><feColorMatrix in="blurOut" result="blurOut2" type="matrix" values="0 0 0 0 0 0 0 0 0 0 0 0 0 0 0 0 0 0 .4 0"/><feOffset dx="4.0" dy="4.0" in="blurOut2" result="blurOut3"/><feBlend in="SourceGraphic" in2="blurOut3" mode="normal"/></filter></defs><g><!--class JsonRPCManager--><rect fill="#FEFECE" filter="url(#f11g0dv1xvzt4q)" height="99.2188" id="JsonRPCManager" style="stroke: #A80036; stroke-width: 1.5;" width="224" x="162.5" y="8"/><ellipse cx="217.75" cy="24" fill="#ADD1B2" rx="11" ry="11" style="stroke: #A80036; stroke-width: 1.0;"/><path d="M220.7188,29.6406 Q220.1406,29.9375 219.5,30.0781 Q218.8594,30.2344 218.1563,30.2344 Q215.6563,30.2344 214.3281,28.5938 Q213.0156,26.9375 213.0156,23.8125 Q213.0156,20.6875 214.3281,19.0313 Q215.6563,17.375 218.1563,17.375 Q218.8594,17.375 219.5,17.5313 Q220.1563,17.6875 220.7188,17.9844 L220.7188,20.7031 Q220.0938,20.125 219.5,19.8594 Q218.9063,19.5781 218.2813,19.5781 Q216.9375,19.5781 216.25,20.6563 Q215.5625,21.7188 215.5625,23.8125 Q215.5625,25.9063 216.25,26.9844 Q216.9375,28.0469 218.2813,28.0469 Q218.9063,28.0469 219.5,27.7813 Q220.0938,27.5 220.7188,26.9219 L220.7188,29.6406 Z "/><text fill="#000000" font-family="sans-serif" font-size="12" lengthAdjust="spacingAndGlyphs" textLength="105" x="238.25" y="28.1543">JsonRPCManager</text><line style="stroke: #A80036; stroke-width: 1.5;" x1="163.5" x2="385.5" y1="40" y2="40"/><line style="stroke: #A80036; stroke-width: 1.5;" x1="163.5" x2="385.5" y1="48" y2="48"/><text fill="#000000" font-family="sans-serif" font-size="11" lengthAdjust="spacingAndGlyphs" textLength="144" x="168.5" y="62.2104">add_handler(name, Func)</text><text fill="#000000" font-family="sans-serif" font-size="11" lengthAdjust="spacingAndGlyphs" textLength="212" x="168.5" y="75.0151">add_notification_handler(name, Func)</text><text fill="#000000" font-family="sans-serif" font-size="11" lengthAdjust="spacingAndGlyphs" textLength="166" x="168.5" y="87.8198">rsponse handle_call(request)</text><text fill="#000000" font-family="sans-serif" font-size="11" lengthAdjust="spacingAndGlyphs" textLength="155" x="168.5" y="100.6245">JsonRPCManager instance()</text><path d="M6,45 L6,70.1328 A0,0 0 0 0 6,70.1328 L127,70.1328 A0,0 0 0 0 127,70.1328 L127,63 L162.46,57.5 L127,55 L127,55 L117,45 L6,45 A0,0 0 0 0 6,45 " fill="#FBFB77" filter="url(#f11g0dv1xvzt4q)" style="stroke: #A80036; stroke-width: 1.0;"/><path d="M117,45 L117,55 L127,55 L117,45 " fill="#FBFB77" style="stroke: #A80036; stroke-width: 1.0;"/><text fill="#000000" font-family="sans-serif" font-size="13" lengthAdjust="spacingAndGlyphs" textLength="100" x="12" y="62.0669">Singleton class.</text><!--class Distpatcher--><rect fill="#FEFECE" filter="url(#f11g0dv1xvzt4q)" height="73.6094" id="Distpatcher" style="stroke: #A80036; stroke-width: 1.5;" width="403" x="73" y="167"/><ellipse cx="233.75" cy="183" fill="#ADD1B2" rx="11" ry="11" style="stroke: #A80036; stroke-width: 1.0;"/><path d="M236.7188,188.6406 Q236.1406,188.9375 235.5,189.0781 Q234.8594,189.2344 234.1563,189.2344 Q231.6563,189.2344 230.3281,187.5938 Q229.0156,185.9375 229.0156,182.8125 Q229.0156,179.6875 230.3281,178.0313 Q231.6563,176.375 234.1563,176.375 Q234.8594,176.375 235.5,176.5313 Q236.1563,176.6875 236.7188,176.9844 L236.7188,179.7031 Q236.0938,179.125 235.5,178.8594 Q234.9063,178.5781 234.2813,178.5781 Q232.9375,178.5781 232.25,179.6563 Q231.5625,180.7188 231.5625,182.8125 Q231.5625,184.9063 232.25,185.9844 Q232.9375,187.0469 234.2813,187.0469 Q234.9063,187.0469 235.5,186.7813 Q236.0938,186.5 236.7188,185.9219 L236.7188,188.6406 Z "/><text fill="#000000" font-family="sans-serif" font-size="12" lengthAdjust="spacingAndGlyphs" textLength="73" x="254.25" y="187.1543">Distpatcher</text><line style="stroke: #A80036; stroke-width: 1.5;" x1="74" x2="475" y1="199" y2="199"/><text fill="#000000" font-family="sans-serif" font-size="11" lengthAdjust="spacingAndGlyphs" textLength="350" x="79" y="213.2104">_methods: std::unordered_map&lt;std::string, MethodHandler&gt;</text><text fill="#000000" font-family="sans-serif" font-size="11" lengthAdjust="spacingAndGlyphs" textLength="391" x="79" y="226.0151">_notifications: std::unordered_map&lt;std::string, NotificationHandler&gt;</text><line style="stroke: #A80036; stroke-width: 1.5;" x1="74" x2="475" y1="232.6094" y2="232.6094"/><path d="M511.5,191.5 L511.5,200 L476.22,204 L511.5,208 L511.5,216.6328 A0,0 0 0 0 511.5,216.6328 L951.5,216.6328 A0,0 0 0 0 951.5,216.6328 L951.5,201.5 L941.5,191.5 L511.5,191.5 A0,0 0 0 0 511.5,191.5 " fill="#FBFB77" filter="url(#f11g0dv1xvzt4q)" style="stroke: #A80036; stroke-width: 1.0;"/><path d="M941.5,191.5 L941.5,201.5 L951.5,201.5 L941.5,191.5 " fill="#FBFB77" style="stroke: #A80036; stroke-width: 1.0;"/><text fill="#000000" font-family="sans-serif" font-size="13" lengthAdjust="spacingAndGlyphs" textLength="419" x="517.5" y="208.5669">Class that knows how to call each callback handler. Storage class.</text><!--link JsonRPCManager to Distpatcher--><path d="M274.5,120.13 C274.5,136.01 274.5,152.6 274.5,166.72 " fill="none" id="JsonRPCManager-Distpatcher" style="stroke: #A80036; stroke-width: 1.0;"/><polygon fill="#A80036" points="274.5,107.02,270.5,113.02,274.5,119.02,278.5,113.02,274.5,107.02" style="stroke: #A80036; stroke-width: 1.0;"/><!--
@startuml
class JsonRPCManager {
add_handler(name, Func)
add_notification_handler(name, Func)
rsponse handle_call(request)
JsonRPCManager instance()
}
note left: Singleton class.

class Distpatcher {
    _methods: std::unordered_map<std::string, MethodHandler>
    _notifications: std::unordered_map<std::string, NotificationHandler>
}
note right: Class that knows how to call each callback handler. Storage class.
JsonRPCManager *- - Distpatcher
@enduml

PlantUML version 1.2018.01(Sun Jan 28 18:08:22 GMT 2018)
(APACHE source distribution)
Java Runtime: OpenJDK Runtime Environment
JVM: OpenJDK 64-Bit Server VM
Java Version: 11.0.9.1+11
Operating System: Linux
OS Version: 5.10.7-200.fc33.x86_64
Default Encoding: UTF-8
Language: en
Country: IE
--></g></svg>