<?xml version="1.0" encoding="UTF-8" standalone="no"?><svg xmlns="http://www.w3.org/2000/svg" xmlns:xlink="http://www.w3.org/1999/xlink" contentScriptType="application/ecmascript" contentStyleType="text/css" height="291px" preserveAspectRatio="none" style="width:527px;height:291px;" version="1.1" viewBox="0 0 527 291" width="527px" zoomAndPan="magnify"><defs><filter height="300%" id="f1b1gm5gjp3a19" width="300%" x="-1" y="-1"><feGaussianBlur result="blurOut" stdDeviation="2.0"/><feColorMatrix in="blurOut" result="blurOut2" type="matrix" values="0 0 0 0 0 0 0 0 0 0 0 0 0 0 0 0 0 0 .4 0"/><feOffset dx="4.0" dy="4.0" in="blurOut2" result="blurOut3"/><feBlend in="SourceGraphic" in2="blurOut3" mode="normal"/></filter></defs><g><!--entity traffic_manager--><polygon fill="#FEFECE" filter="url(#f1b1gm5gjp3a19)" points="13.5,131,23.5,121,158.5,121,158.5,157.2969,148.5,167.2969,13.5,167.2969,13.5,131" style="stroke: #000000; stroke-width: 1.5;"/><line style="stroke: #000000; stroke-width: 1.5;" x1="148.5" x2="157.5" y1="131" y2="122"/><line style="stroke: #000000; stroke-width: 1.5;" x1="13.5" x2="148.5" y1="131" y2="131"/><line style="stroke: #000000; stroke-width: 1.5;" x1="148.5" x2="148.5" y1="131" y2="167.2969"/><text fill="#000000" font-family="sans-serif" font-size="14" lengthAdjust="spacingAndGlyphs" textLength="105" x="28.5" y="153.9951">traffic_manager</text><!--entity traffic_server--><polygon fill="#FEFECE" filter="url(#f1b1gm5gjp3a19)" points="257.5,131,267.5,121,384.5,121,384.5,157.2969,374.5,167.2969,257.5,167.2969,257.5,131" style="stroke: #000000; stroke-width: 1.5;"/><line style="stroke: #000000; stroke-width: 1.5;" x1="374.5" x2="383.5" y1="131" y2="122"/><line style="stroke: #000000; stroke-width: 1.5;" x1="257.5" x2="374.5" y1="131" y2="131"/><line style="stroke: #000000; stroke-width: 1.5;" x1="374.5" x2="374.5" y1="131" y2="167.2969"/><text fill="#000000" font-family="sans-serif" font-size="14" lengthAdjust="spacingAndGlyphs" textLength="87" x="272.5" y="153.9951">traffic_server</text><!--entity traffic_ctl--><rect fill="#FEFECE" filter="url(#f1b1gm5gjp3a19)" height="36.2969" style="stroke: #A80036; stroke-width: 1.5;" width="80" x="46" y="8"/><rect fill="#FEFECE" height="5" style="stroke: #A80036; stroke-width: 1.5;" width="10" x="41" y="13"/><rect fill="#FEFECE" height="5" style="stroke: #A80036; stroke-width: 1.5;" width="10" x="41" y="34.2969"/><text fill="#000000" font-family="sans-serif" font-size="14" lengthAdjust="spacingAndGlyphs" textLength="60" x="56" y="30.9951">traffic_ctl</text><!--entity other remote clients--><rect fill="#FEFECE" filter="url(#f1b1gm5gjp3a19)" height="36.2969" style="stroke: #A80036; stroke-width: 1.5;" width="160" x="6" y="244"/><rect fill="#FEFECE" height="5" style="stroke: #A80036; stroke-width: 1.5;" width="10" x="1" y="249"/><rect fill="#FEFECE" height="5" style="stroke: #A80036; stroke-width: 1.5;" width="10" x="1" y="270.2969"/><text fill="#000000" font-family="sans-serif" font-size="14" lengthAdjust="spacingAndGlyphs" textLength="140" x="16" y="266.9951">other remote clients</text><!--entity plugin--><rect fill="#FEFECE" filter="url(#f1b1gm5gjp3a19)" height="36.2969" style="stroke: #A80036; stroke-width: 1.5;" width="62" x="454" y="126"/><rect fill="#FEFECE" height="5" style="stroke: #A80036; stroke-width: 1.5;" width="10" x="449" y="131"/><rect fill="#FEFECE" height="5" style="stroke: #A80036; stroke-width: 1.5;" width="10" x="449" y="152.2969"/><text fill="#000000" font-family="sans-serif" font-size="14" lengthAdjust="spacingAndGlyphs" textLength="42" x="464" y="148.9951">plugin</text><!--link traffic_ctl to traffic_manager--><path d="M86,49.37 C86,68.21 86,95.23 86,115.4 " fill="none" id="traffic_ctl-traffic_manager" style="stroke: #A80036; stroke-width: 1.0;"/><polygon fill="#A80036" points="86,120.64,90,111.64,86,115.64,82,111.64,86,120.64" style="stroke: #A80036; stroke-width: 1.0;"/><polygon fill="#A80036" points="86,44.12,82,53.12,86,49.12,90,53.12,86,44.12" style="stroke: #A80036; stroke-width: 1.0;"/><text fill="#000000" font-family="sans-serif" font-size="13" lengthAdjust="spacingAndGlyphs" textLength="79" x="87" y="87.0669">Remote RPC</text><!--link traffic_manager to other remote clients--><path d="M86,172.25 C86,192.52 86,219.83 86,238.78 " fill="none" id="traffic_manager-other remote clients" style="stroke: #A80036; stroke-width: 1.0;"/><polygon fill="#A80036" points="86,243.89,90,234.89,86,238.89,82,234.89,86,243.89" style="stroke: #A80036; stroke-width: 1.0;"/><polygon fill="#A80036" points="86,167.09,82,176.09,86,172.09,90,176.09,86,167.09" style="stroke: #A80036; stroke-width: 1.0;"/><text fill="#000000" font-family="sans-serif" font-size="13" lengthAdjust="spacingAndGlyphs" textLength="79" x="87" y="210.0669">Remote RPC</text><!--link traffic_manager to traffic_server--><path d="M163.96,144 C192.5,144 224.55,144 252.22,144 " fill="none" id="traffic_manager-traffic_server" style="stroke: #A80036; stroke-width: 1.0;"/><polygon fill="#A80036" points="257.34,144,248.34,140,252.34,144,248.34,148,257.34,144" style="stroke: #A80036; stroke-width: 1.0;"/><polygon fill="#A80036" points="158.75,144,167.75,148,163.75,144,167.75,140,158.75,144" style="stroke: #A80036; stroke-width: 1.0;"/><text fill="#000000" font-family="sans-serif" font-size="13" lengthAdjust="spacingAndGlyphs" textLength="62" x="177" y="137.0669">Local RPC</text><!--link traffic_server to plugin--><path d="M389.91,144 C410.14,144 431.45,144 448.76,144 " fill="none" id="traffic_server-plugin" style="stroke: #A80036; stroke-width: 1.0;"/><polygon fill="#A80036" points="454,144,445,140,449,144,445,148,454,144" style="stroke: #A80036; stroke-width: 1.0;"/><polygon fill="#A80036" points="384.88,144,393.88,148,389.88,144,393.88,140,384.88,144" style="stroke: #A80036; stroke-width: 1.0;"/><text fill="#000000" font-family="sans-serif" font-size="13" lengthAdjust="spacingAndGlyphs" textLength="33" x="402.75" y="137.0669">Hook</text><!--
@startuml
hide empty members

node "traffic_manager"
node "traffic_server"

[traffic_ctl] <-d-> [traffic_manager] : Remote RPC
[other remote clients] <-u-> [traffic_manager] : Remote RPC
[traffic_manager] <-r-> [traffic_server] : Local RPC
[traffic_server] <-r-> [plugin] : Hook

@enduml

PlantUML version 1.2018.01(Sun Jan 28 18:08:22 GMT 2018)
(APACHE source distribution)
Java Runtime: OpenJDK Runtime Environment
JVM: OpenJDK 64-Bit Server VM
Java Version: 11.0.9.1+11
Operating System: Linux
OS Version: 5.10.7-200.fc33.x86_64
Default Encoding: UTF-8
Language: en
Country: IE
--></g></svg>