<?xml version="1.0" encoding="UTF-8" standalone="no"?><svg xmlns="http://www.w3.org/2000/svg" xmlns:xlink="http://www.w3.org/1999/xlink" contentScriptType="application/ecmascript" contentStyleType="text/css" height="450px" preserveAspectRatio="none" style="width:221px;height:450px;" version="1.1" viewBox="0 0 221 450" width="221px" zoomAndPan="magnify"><defs><filter height="300%" id="f1wahcf2n0w0zs" width="300%" x="-1" y="-1"><feGaussianBlur result="blurOut" stdDeviation="2.0"/><feColorMatrix in="blurOut" result="blurOut2" type="matrix" values="0 0 0 0 0 0 0 0 0 0 0 0 0 0 0 0 0 0 .4 0"/><feOffset dx="4.0" dy="4.0" in="blurOut2" result="blurOut3"/><feBlend in="SourceGraphic" in2="blurOut3" mode="normal"/></filter></defs><g><ellipse cx="16" cy="33" fill="#000000" filter="url(#f1wahcf2n0w0zs)" rx="10" ry="10" style="stroke: none; stroke-width: 1.0;"/><rect fill="#FEFECE" filter="url(#f1wahcf2n0w0zs)" height="50" rx="12.5" ry="12.5" style="stroke: #A80036; stroke-width: 1.5;" width="72" x="61" y="8"/><line style="stroke: #A80036; stroke-width: 1.5;" x1="61" x2="133" y1="34.2969" y2="34.2969"/><text fill="#000000" font-family="sans-serif" font-size="14" lengthAdjust="spacingAndGlyphs" textLength="52" x="71" y="25.9951">State_0</text><rect fill="#FEFECE" filter="url(#f1wahcf2n0w0zs)" height="50" rx="12.5" ry="12.5" style="stroke: #A80036; stroke-width: 1.5;" width="72" x="48" y="135"/><line style="stroke: #A80036; stroke-width: 1.5;" x1="48" x2="120" y1="161.2969" y2="161.2969"/><text fill="#000000" font-family="sans-serif" font-size="14" lengthAdjust="spacingAndGlyphs" textLength="52" x="58" y="152.9951">State_1</text><rect fill="#FEFECE" filter="url(#f1wahcf2n0w0zs)" height="50" rx="12.5" ry="12.5" style="stroke: #A80036; stroke-width: 1.5;" width="72" x="137" y="262"/><line style="stroke: #A80036; stroke-width: 1.5;" x1="137" x2="209" y1="288.2969" y2="288.2969"/><text fill="#000000" font-family="sans-serif" font-size="14" lengthAdjust="spacingAndGlyphs" textLength="52" x="147" y="279.9951">State_2</text><rect fill="#FEFECE" filter="url(#f1wahcf2n0w0zs)" height="50" rx="12.5" ry="12.5" style="stroke: #A80036; stroke-width: 1.5;" width="72" x="47" y="389"/><line style="stroke: #A80036; stroke-width: 1.5;" x1="47" x2="119" y1="415.2969" y2="415.2969"/><text fill="#000000" font-family="sans-serif" font-size="14" lengthAdjust="spacingAndGlyphs" textLength="52" x="57" y="406.9951">State_3</text><ellipse cx="180" cy="414" fill="none" filter="url(#f1wahcf2n0w0zs)" rx="10" ry="10" style="stroke: #000000; stroke-width: 1.0;"/><ellipse cx="180.5" cy="414.5" fill="#000000" rx="6" ry="6" style="stroke: none; stroke-width: 1.0;"/><!--link *start to State_0--><path d="M26.12,33 C35.95,33 45.77,33 55.59,33 " fill="none" id="*start-State_0" style="stroke: #A80036; stroke-width: 1.0;"/><polygon fill="#A80036" points="60.73,33,51.73,29,55.73,33,51.73,37,60.73,33" style="stroke: #A80036; stroke-width: 1.0;"/><!--link State_0 to State_1--><path d="M79.04,58.01 C73.39,66.95 67.88,77.49 65,88 C61.22,101.8 64.39,117.13 69.16,130 " fill="none" id="State_0-State_1" style="stroke: #A80036; stroke-width: 1.0;"/><polygon fill="#A80036" points="71.13,134.99,71.564,125.1507,69.3026,130.3359,64.1174,128.0745,71.13,134.99" style="stroke: #A80036; stroke-width: 1.0;"/><text fill="#000000" font-family="sans-serif" font-size="13" lengthAdjust="spacingAndGlyphs" textLength="17" x="66" y="101.0669">CR</text><!--link State_1 to State_0--><path d="M86.5,134.97 C88.63,114.5 91.69,85.02 93.96,63.19 " fill="none" id="State_1-State_0" style="stroke: #A80036; stroke-width: 1.0;"/><polygon fill="#A80036" points="94.49,58.1,89.5609,66.6267,93.9614,63.072,97.516,67.4725,94.49,58.1" style="stroke: #A80036; stroke-width: 1.0;"/><text fill="#000000" font-family="sans-serif" font-size="13" lengthAdjust="spacingAndGlyphs" textLength="7" x="93" y="101.0669">*</text><!--link State_1 to State_1--><path d="M120.17,148.75 C138.53,147.11 155,150.86 155,160 C155,168.29 141.48,172.14 125.27,171.57 " fill="none" id="State_1-State_1" style="stroke: #A80036; stroke-width: 1.0;"/><polygon fill="#A80036" points="120.17,171.25,128.9005,175.8083,125.1601,171.5646,129.4038,167.8241,120.17,171.25" style="stroke: #A80036; stroke-width: 1.0;"/><text fill="#000000" font-family="sans-serif" font-size="13" lengthAdjust="spacingAndGlyphs" textLength="17" x="161" y="164.5669">CR</text><!--link State_1 to State_2--><path d="M101.16,185.1 C115.93,205.85 137.27,235.82 152.86,257.71 " fill="none" id="State_1-State_2" style="stroke: #A80036; stroke-width: 1.0;"/><polygon fill="#A80036" points="155.89,261.97,153.9266,252.3188,152.9892,257.8975,147.4106,256.9601,155.89,261.97" style="stroke: #A80036; stroke-width: 1.0;"/><text fill="#000000" font-family="sans-serif" font-size="13" lengthAdjust="spacingAndGlyphs" textLength="14" x="135" y="228.0669">LF</text><!--link State_2 to State_3--><path d="M155.65,312.1 C140.71,332.85 119.13,362.82 103.37,384.71 " fill="none" id="State_2-State_3" style="stroke: #A80036; stroke-width: 1.0;"/><polygon fill="#A80036" points="100.3,388.97,108.8109,384.0137,103.2264,384.9159,102.3242,379.3314,100.3,388.97" style="stroke: #A80036; stroke-width: 1.0;"/><text fill="#000000" font-family="sans-serif" font-size="13" lengthAdjust="spacingAndGlyphs" textLength="17" x="135" y="355.0669">CR</text><!--link State_2 to State_0--><path d="M181.08,261.84 C189.93,231.27 200.91,177.48 185,135 C174.22,106.21 151.11,80.22 131.28,61.82 " fill="none" id="State_2-State_0" style="stroke: #A80036; stroke-width: 1.0;"/><polygon fill="#A80036" points="127.36,58.24,131.3184,67.2584,131.0558,61.6076,136.7066,61.3451,127.36,58.24" style="stroke: #A80036; stroke-width: 1.0;"/><text fill="#000000" font-family="sans-serif" font-size="13" lengthAdjust="spacingAndGlyphs" textLength="7" x="194" y="164.5669">*</text><!--link State_3 to *end--><path d="M119.12,414 C134.81,414 152.36,414 164.57,414 " fill="none" id="State_3-*end" style="stroke: #A80036; stroke-width: 1.0;"/><polygon fill="#A80036" points="169.78,414,160.78,410,164.78,414,160.78,418,169.78,414" style="stroke: #A80036; stroke-width: 1.0;"/><text fill="#000000" font-family="sans-serif" font-size="13" lengthAdjust="spacingAndGlyphs" textLength="14" x="137.5" y="407.0669">LF</text><!--link State_3 to State_1--><path d="M83.1,388.91 C83.28,342.49 83.68,240.81 83.88,190.46 " fill="none" id="State_3-State_1" style="stroke: #A80036; stroke-width: 1.0;"/><polygon fill="#A80036" points="83.9,185.16,79.8743,194.1485,83.8857,190.16,87.8743,194.1714,83.9,185.16" style="stroke: #A80036; stroke-width: 1.0;"/><text fill="#000000" font-family="sans-serif" font-size="13" lengthAdjust="spacingAndGlyphs" textLength="17" x="85" y="291.5669">CR</text><!--link State_3 to State_0--><path d="M71.33,388.97 C49.34,340.51 6.05,227.77 30,135 C37.04,107.72 55.04,81.36 70.61,62.4 " fill="none" id="State_3-State_0" style="stroke: #A80036; stroke-width: 1.0;"/><polygon fill="#A80036" points="74.1,58.23,65.2591,62.5703,70.8934,62.0664,71.3973,67.7008,74.1,58.23" style="stroke: #A80036; stroke-width: 1.0;"/><text fill="#000000" font-family="sans-serif" font-size="13" lengthAdjust="spacingAndGlyphs" textLength="7" x="27" y="228.0669">*</text><!--
@startuml
[*] -r> State_0
State_0 - -> State_1 : CR
State_1 - -> State_0 : *
State_1 - -> State_1 : CR
State_1 - -> State_2 : LF
State_2 - -> State_3 : CR
State_2 - -> State_0 : *
State_3 -r> [*] : LF
State_3 - -> State_1 : CR
State_3 - -> State_0 : *
@enduml

PlantUML version 1.2018.01(Sun Jan 28 18:08:22 GMT 2018)
(APACHE source distribution)
Java Runtime: OpenJDK Runtime Environment
JVM: OpenJDK 64-Bit Server VM
Java Version: 11.0.9.1+11
Operating System: Linux
OS Version: 5.10.7-200.fc33.x86_64
Default Encoding: UTF-8
Language: en
Country: IE
--></g></svg>