<?xml version="1.0" encoding="UTF-8" standalone="no"?><svg xmlns="http://www.w3.org/2000/svg" xmlns:xlink="http://www.w3.org/1999/xlink" contentScriptType="application/ecmascript" contentStyleType="text/css" height="371px" preserveAspectRatio="none" style="width:740px;height:371px;" version="1.1" viewBox="0 0 740 371" width="740px" zoomAndPan="magnify"><defs><filter height="300%" id="f1pyh3v3npowcz" width="300%" x="-1" y="-1"><feGaussianBlur result="blurOut" stdDeviation="2.0"/><feColorMatrix in="blurOut" result="blurOut2" type="matrix" values="0 0 0 0 0 0 0 0 0 0 0 0 0 0 0 0 0 0 .4 0"/><feOffset dx="4.0" dy="4.0" in="blurOut2" result="blurOut3"/><feBlend in="SourceGraphic" in2="blurOut3" mode="normal"/></filter></defs><g><rect fill="#FFFFFF" filter="url(#f1pyh3v3npowcz)" height="132.5313" style="stroke: #000000; stroke-width: 2.0;" width="491" x="238" y="55.2969"/><rect fill="#FFFFFF" filter="url(#f1pyh3v3npowcz)" height="112.5313" style="stroke: #000000; stroke-width: 2.0;" width="701" x="12" y="229.8281"/><line style="stroke: #A80036; stroke-width: 1.0;" x1="135" x2="135" y1="38.2969" y2="159.8281"/><line style="stroke: #A80036; stroke-width: 1.0; stroke-dasharray: 1.0,4.0;" x1="135" x2="135" y1="159.8281" y2="187.8281"/><line style="stroke: #A80036; stroke-width: 1.0;" x1="135" x2="135" y1="187.8281" y2="194.8281"/><line style="stroke: #A80036; stroke-width: 1.0; stroke-dasharray: 1.0,4.0;" x1="135" x2="135" y1="194.8281" y2="222.8281"/><line style="stroke: #A80036; stroke-width: 1.0;" x1="135" x2="135" y1="222.8281" y2="359.3594"/><line style="stroke: #A80036; stroke-width: 1.0;" x1="350" x2="350" y1="38.2969" y2="159.8281"/><line style="stroke: #A80036; stroke-width: 1.0; stroke-dasharray: 1.0,4.0;" x1="350" x2="350" y1="159.8281" y2="187.8281"/><line style="stroke: #A80036; stroke-width: 1.0;" x1="350" x2="350" y1="187.8281" y2="194.8281"/><line style="stroke: #A80036; stroke-width: 1.0; stroke-dasharray: 1.0,4.0;" x1="350" x2="350" y1="194.8281" y2="222.8281"/><line style="stroke: #A80036; stroke-width: 1.0;" x1="350" x2="350" y1="222.8281" y2="359.3594"/><line style="stroke: #A80036; stroke-width: 1.0;" x1="591" x2="591" y1="38.2969" y2="159.8281"/><line style="stroke: #A80036; stroke-width: 1.0; stroke-dasharray: 1.0,4.0;" x1="591" x2="591" y1="159.8281" y2="187.8281"/><line style="stroke: #A80036; stroke-width: 1.0;" x1="591" x2="591" y1="187.8281" y2="194.8281"/><line style="stroke: #A80036; stroke-width: 1.0; stroke-dasharray: 1.0,4.0;" x1="591" x2="591" y1="194.8281" y2="222.8281"/><line style="stroke: #A80036; stroke-width: 1.0;" x1="591" x2="591" y1="222.8281" y2="359.3594"/><rect fill="#FEFECE" filter="url(#f1pyh3v3npowcz)" height="30.2969" style="stroke: #A80036; stroke-width: 1.5;" width="51" x="108" y="3"/><text fill="#000000" font-family="sans-serif" font-size="14" lengthAdjust="spacingAndGlyphs" textLength="37" x="115" y="22.9951">client</text><rect fill="#FEFECE" filter="url(#f1pyh3v3npowcz)" height="30.2969" style="stroke: #A80036; stroke-width: 1.5;" width="51" x="323" y="3"/><text fill="#000000" font-family="sans-serif" font-size="14" lengthAdjust="spacingAndGlyphs" textLength="37" x="330" y="22.9951">proxy</text><rect fill="#FEFECE" filter="url(#f1pyh3v3npowcz)" height="30.2969" style="stroke: #A80036; stroke-width: 1.5;" width="102" x="538" y="3"/><text fill="#000000" font-family="sans-serif" font-size="14" lengthAdjust="spacingAndGlyphs" textLength="88" x="545" y="22.9951">origin_server</text><path d="M238,55.2969 L476,55.2969 L476,62.2969 L466,72.2969 L238,72.2969 L238,55.2969 " fill="#EEEEEE" style="stroke: #000000; stroke-width: 1.0;"/><rect fill="none" height="132.5313" style="stroke: #000000; stroke-width: 2.0;" width="491" x="238" y="55.2969"/><text fill="#000000" font-family="sans-serif" font-size="13" font-weight="bold" lengthAdjust="spacingAndGlyphs" textLength="193" x="253" y="68.3638">pre-warm connection pool</text><polygon fill="#A80036" points="579,89.4297,589,93.4297,579,97.4297,583,93.4297" style="stroke: #A80036; stroke-width: 1.0;"/><line style="stroke: #A80036; stroke-width: 1.0;" x1="350.5" x2="585" y1="93.4297" y2="93.4297"/><text fill="#000000" font-family="sans-serif" font-size="13" lengthAdjust="spacingAndGlyphs" textLength="106" x="357.5" y="88.4966">open connection</text><polygon fill="#A80036" points="579,118.5625,589,122.5625,579,126.5625,583,122.5625" style="stroke: #A80036; stroke-width: 1.0;"/><line style="stroke: #A80036; stroke-width: 1.0;" x1="350.5" x2="585" y1="122.5625" y2="122.5625"/><text fill="#000000" font-family="sans-serif" font-size="13" lengthAdjust="spacingAndGlyphs" textLength="106" x="357.5" y="117.6294">open connection</text><polygon fill="#A80036" points="579,147.6953,589,151.6953,579,155.6953,583,151.6953" style="stroke: #A80036; stroke-width: 1.0;"/><line style="stroke: #A80036; stroke-width: 1.0;" x1="350.5" x2="585" y1="151.6953" y2="151.6953"/><text fill="#000000" font-family="sans-serif" font-size="13" lengthAdjust="spacingAndGlyphs" textLength="106" x="357.5" y="146.7622">open connection</text><path d="M12,229.8281 L153,229.8281 L153,236.8281 L143,246.8281 L12,246.8281 L12,229.8281 " fill="#EEEEEE" style="stroke: #000000; stroke-width: 1.0;"/><rect fill="none" height="112.5313" style="stroke: #000000; stroke-width: 2.0;" width="701" x="12" y="229.8281"/><text fill="#000000" font-family="sans-serif" font-size="13" font-weight="bold" lengthAdjust="spacingAndGlyphs" textLength="96" x="27" y="242.895">pool size &gt; 0</text><polygon fill="#A80036" points="338.5,263.9609,348.5,267.9609,338.5,271.9609,342.5,267.9609" style="stroke: #A80036; stroke-width: 1.0;"/><line style="stroke: #A80036; stroke-width: 1.0;" x1="135.5" x2="344.5" y1="267.9609" y2="267.9609"/><text fill="#000000" font-family="sans-serif" font-size="13" lengthAdjust="spacingAndGlyphs" textLength="106" x="142.5" y="263.0278">open connection</text><polygon fill="#FFFFFF" filter="url(#f1pyh3v3npowcz)" points="227,281.0938,474,281.0938,484,292.0938,474,304.0938,227,304.0938,217,292.0938,227,281.0938" style="stroke: #A80036; stroke-width: 1.0;"/><text fill="#000000" font-family="sans-serif" font-size="13" lengthAdjust="spacingAndGlyphs" textLength="243" x="229" y="297.1606">use pre-warmed connection from pool</text><rect fill="#90EE90" filter="url(#f1pyh3v3npowcz)" height="23" style="stroke: #A80036; stroke-width: 1.0;" width="681" x="22" y="314.2266"/><text fill="#000000" font-family="sans-serif" font-size="13" lengthAdjust="spacingAndGlyphs" textLength="148" x="288.5" y="330.2935">TLS Partial Blind Tunnel</text><!--
@startuml
skinparam sequenceMessageAlign direction
skinparam ParticipantPadding 75
skinparam backgroundColor #white
hide footbox

participant client
participant proxy
participant origin_server

group pre-warm connection pool
  proxy -> origin_server : open connection
  proxy -> origin_server : open connection
  proxy -> origin_server : open connection
  ...
end
...
group pool size > 0
  client -> proxy : open connection
  hnote over proxy #white: use pre-warmed connection from pool
  rnote over client, origin_server #lightgreen: TLS Partial Blind Tunnel
end
@enduml

PlantUML version 1.2018.01(Sun Jan 28 18:08:22 GMT 2018)
(APACHE source distribution)
Java Runtime: OpenJDK Runtime Environment
JVM: OpenJDK 64-Bit Server VM
Java Version: 11.0.9.1+11
Operating System: Linux
OS Version: 5.10.7-200.fc33.x86_64
Default Encoding: UTF-8
Language: en
Country: IE
--></g></svg>