<?xml version="1.0" encoding="UTF-8" standalone="no"?><svg xmlns="http://www.w3.org/2000/svg" xmlns:xlink="http://www.w3.org/1999/xlink" contentScriptType="application/ecmascript" contentStyleType="text/css" height="133px" preserveAspectRatio="none" style="width:510px;height:133px;" version="1.1" viewBox="0 0 510 133" width="510px" zoomAndPan="magnify"><defs><filter height="300%" id="f18p37jwo5ssms" width="300%" x="-1" y="-1"><feGaussianBlur result="blurOut" stdDeviation="2.0"/><feColorMatrix in="blurOut" result="blurOut2" type="matrix" values="0 0 0 0 0 0 0 0 0 0 0 0 0 0 0 0 0 0 .4 0"/><feOffset dx="4.0" dy="4.0" in="blurOut2" result="blurOut3"/><feBlend in="SourceGraphic" in2="blurOut3" mode="normal"/></filter></defs><g><!--cluster Corporate Net--><polygon fill="#FFFFFF" filter="url(#f18p37jwo5ssms)" points="360.5,24,478.5,24,485.5,46.2969,488.5,46.2969,488.5,121,360.5,121,360.5,24" style="stroke: #000000; stroke-width: 1.5;"/><line style="stroke: #000000; stroke-width: 1.5;" x1="360.5" x2="485.5" y1="46.2969" y2="46.2969"/><text fill="#000000" font-family="sans-serif" font-size="14" font-weight="bold" lengthAdjust="spacingAndGlyphs" textLength="112" x="364.5" y="38.9951">Corporate Net</text><!--entity Service--><polygon fill="#FEFECE" filter="url(#f18p37jwo5ssms)" points="377.5,69,387.5,59,467.5,59,467.5,95.2969,457.5,105.2969,377.5,105.2969,377.5,69" style="stroke: #000000; stroke-width: 1.5;"/><line style="stroke: #000000; stroke-width: 1.5;" x1="457.5" x2="466.5" y1="69" y2="60"/><line style="stroke: #000000; stroke-width: 1.5;" x1="377.5" x2="457.5" y1="69" y2="69"/><line style="stroke: #000000; stroke-width: 1.5;" x1="457.5" x2="457.5" y1="69" y2="105.2969"/><text fill="#000000" font-family="sans-serif" font-size="14" lengthAdjust="spacingAndGlyphs" textLength="50" x="392.5" y="91.9951">Service</text><!--entity Client--><polygon fill="#FEFECE" filter="url(#f18p37jwo5ssms)" points="6,69,16,59,85,59,85,95.2969,75,105.2969,6,105.2969,6,69" style="stroke: #000000; stroke-width: 1.5;"/><line style="stroke: #000000; stroke-width: 1.5;" x1="75" x2="84" y1="69" y2="60"/><line style="stroke: #000000; stroke-width: 1.5;" x1="6" x2="75" y1="69" y2="69"/><line style="stroke: #000000; stroke-width: 1.5;" x1="75" x2="75" y1="69" y2="105.2969"/><text fill="#000000" font-family="sans-serif" font-size="14" lengthAdjust="spacingAndGlyphs" textLength="39" x="21" y="91.9951">Client</text><!--entity Cloud--><path d="M123,62.5 C123,59.5 125,57.5 128,57.5 C131,57.5 133,59.5 133,62.5 C133,59.5 135,57.5 138,57.5 C141,57.5 143,59.5 143,62.5 C143,59.5 145,57.5 148,57.5 C151,57.5 153,59.5 153,62.5 C153,59.5 155,57.5 158,57.5 C161,57.5 163,59.5 163,62.5 C163,59.5 165,57.5 168,57.5 C171,57.5 173,59.5 173,62.5 C173,59.5 175,57.5 178,57.5 C181,57.5 183,59.5 183,62.5 C183,59.5 185,57.5 188,57.5 C191,57.5 193,59.5 193,62.5 C193,59.5 195,57.5 198,57.5 C201,57.5 203,59.5 203,62.5 C206,62.5 208,64.5 208,67.5 C208,70.5 206,72.5 203,72.5 C206,72.5 208,74.5 208,77.5 C208,80.5 206,82.5 203,82.5 C206,82.5 208,84.5 208,87.5 C208,90.5 206,92.5 203,92.5 C206,92.5 208,94.5 208,97.5 C208,100.5 206,102.5 203,102.5 C203,105.5 200,107.5 198,107.5 C195,107.5 193,105.5 193,102.5 C193,105.5 190,107.5 188,107.5 C185,107.5 183,105.5 183,102.5 C183,105.5 180,107.5 178,107.5 C175,107.5 173,105.5 173,102.5 C173,105.5 170,107.5 168,107.5 C165,107.5 163,105.5 163,102.5 C163,105.5 160,107.5 158,107.5 C155,107.5 153,105.5 153,102.5 C153,105.5 150,107.5 148,107.5 C145,107.5 143,105.5 143,102.5 C143,105.5 140,107.5 138,107.5 C135,107.5 133,105.5 133,102.5 C133,105.5 130,107.5 128,107.5 C125,107.5 123,105.5 123,102.5 C120,102.5 118,100.5 118,97.5 C118,94.5 120,92.5 123,92.5 C120,92.5 118,90.5 118,87.5 C118,84.5 120,82.5 123,82.5 C120,82.5 118,80.5 118,77.5 C118,74.5 120,72.5 123,72.5 C120,72.5 118,70.5 118,67.5 C118,64.5 120,62.5 123,62.5 " fill="#FEFECE" filter="url(#f18p37jwo5ssms)" style="stroke: #000000; stroke-width: 1.5;"/><text fill="#000000" font-family="sans-serif" font-size="14" lengthAdjust="spacingAndGlyphs" textLength="69" x="130" y="78.4951">Untrusted</text><text fill="#000000" font-family="sans-serif" font-size="14" lengthAdjust="spacingAndGlyphs" textLength="65" x="130" y="94.792">Networks</text><!--entity Edge TS--><polygon fill="#FEFECE" filter="url(#f18p37jwo5ssms)" points="244.5,69,254.5,59,342.5,59,342.5,95.2969,332.5,105.2969,244.5,105.2969,244.5,69" style="stroke: #000000; stroke-width: 1.5;"/><line style="stroke: #000000; stroke-width: 1.5;" x1="332.5" x2="341.5" y1="69" y2="60"/><line style="stroke: #000000; stroke-width: 1.5;" x1="244.5" x2="332.5" y1="69" y2="69"/><line style="stroke: #000000; stroke-width: 1.5;" x1="332.5" x2="332.5" y1="69" y2="105.2969"/><text fill="#000000" font-family="sans-serif" font-size="14" lengthAdjust="spacingAndGlyphs" textLength="58" x="259.5" y="91.9951">Edge TS</text><!--link Client to Cloud--><path d="M90.17,82 C98.35,82 106.52,82 114.7,82 " fill="none" id="Client-Cloud" style="stroke: #A80036; stroke-width: 1.0;"/><polygon fill="#A80036" points="119.79,82,110.79,78,114.79,82,110.79,86,119.79,82" style="stroke: #A80036; stroke-width: 1.0;"/><polygon fill="#A80036" points="85.01,82,94.01,86,90.01,82,94.01,78,85.01,82" style="stroke: #A80036; stroke-width: 1.0;"/><!--link Cloud to Edge TS--><path d="M214.33,82 C222.63,82 230.92,82 239.21,82 " fill="none" id="Cloud-Edge TS" style="stroke: #A80036; stroke-width: 1.0;"/><polygon fill="#A80036" points="244.37,82,235.37,78,239.37,82,235.37,86,244.37,82" style="stroke: #A80036; stroke-width: 1.0;"/><polygon fill="#A80036" points="209.1,82,218.1,86,214.1,82,218.1,78,209.1,82" style="stroke: #A80036; stroke-width: 1.0;"/><!--link Edge TS to Service--><path d="M347.77,82 C355.91,82 364.05,82 372.19,82 " fill="none" id="Edge TS-Service" style="stroke: #A80036; stroke-width: 1.0;"/><polygon fill="#A80036" points="377.26,82,368.26,78,372.26,82,368.26,86,377.26,82" style="stroke: #A80036; stroke-width: 1.0;"/><polygon fill="#A80036" points="342.63,82,351.63,86,347.63,82,351.63,78,342.63,82" style="stroke: #A80036; stroke-width: 1.0;"/><!--
@startuml
hide empty members

node Client
cloud "Untrusted\nNetworks" as Cloud
node "Edge TS"
package "Corporate Net" {
    node Service
}

[Client] <-> [Cloud]
[Cloud] <-> [Edge TS]
[Edge TS] <-> [Service]
@enduml

PlantUML version 1.2018.01(Sun Jan 28 18:08:22 GMT 2018)
(APACHE source distribution)
Java Runtime: OpenJDK Runtime Environment
JVM: OpenJDK 64-Bit Server VM
Java Version: 11.0.9.1+11
Operating System: Linux
OS Version: 5.10.7-200.fc33.x86_64
Default Encoding: UTF-8
Language: en
Country: IE
--></g></svg>