<?xml version="1.0" encoding="UTF-8" standalone="no"?><svg xmlns="http://www.w3.org/2000/svg" xmlns:xlink="http://www.w3.org/1999/xlink" contentScriptType="application/ecmascript" contentStyleType="text/css" height="269px" preserveAspectRatio="none" style="width:206px;height:269px;" version="1.1" viewBox="0 0 206 269" width="206px" zoomAndPan="magnify"><defs><filter height="300%" id="fi4eemgy6f5tf" width="300%" x="-1" y="-1"><feGaussianBlur result="blurOut" stdDeviation="2.0"/><feColorMatrix in="blurOut" result="blurOut2" type="matrix" values="0 0 0 0 0 0 0 0 0 0 0 0 0 0 0 0 0 0 .4 0"/><feOffset dx="4.0" dy="4.0" in="blurOut2" result="blurOut3"/><feBlend in="SourceGraphic" in2="blurOut3" mode="normal"/></filter></defs><g><!--class CacheHostRecord--><rect fill="#FEFECE" filter="url(#fi4eemgy6f5tf)" height="32" id="CacheHostRecord" style="stroke: #A80036; stroke-width: 1.5;" width="144" x="6" y="8"/><ellipse cx="21" cy="24" fill="#ADD1B2" rx="11" ry="11" style="stroke: #A80036; stroke-width: 1.0;"/><path d="M23.9688,29.6406 Q23.3906,29.9375 22.75,30.0781 Q22.1094,30.2344 21.4063,30.2344 Q18.9063,30.2344 17.5781,28.5938 Q16.2656,26.9375 16.2656,23.8125 Q16.2656,20.6875 17.5781,19.0313 Q18.9063,17.375 21.4063,17.375 Q22.1094,17.375 22.75,17.5313 Q23.4063,17.6875 23.9688,17.9844 L23.9688,20.7031 Q23.3438,20.125 22.75,19.8594 Q22.1563,19.5781 21.5313,19.5781 Q20.1875,19.5781 19.5,20.6563 Q18.8125,21.7188 18.8125,23.8125 Q18.8125,25.9063 19.5,26.9844 Q20.1875,28.0469 21.5313,28.0469 Q22.1563,28.0469 22.75,27.7813 Q23.3438,27.5 23.9688,26.9219 L23.9688,29.6406 Z "/><text fill="#000000" font-family="sans-serif" font-size="12" lengthAdjust="spacingAndGlyphs" textLength="112" x="35" y="28.1543">CacheHostRecord</text><!--class Stripe--><rect fill="#FEFECE" filter="url(#fi4eemgy6f5tf)" height="32" id="Stripe" style="stroke: #A80036; stroke-width: 1.5;" width="69" x="29.5" y="226"/><ellipse cx="44.5" cy="242" fill="#ADD1B2" rx="11" ry="11" style="stroke: #A80036; stroke-width: 1.0;"/><path d="M47.4688,247.6406 Q46.8906,247.9375 46.25,248.0781 Q45.6094,248.2344 44.9063,248.2344 Q42.4063,248.2344 41.0781,246.5938 Q39.7656,244.9375 39.7656,241.8125 Q39.7656,238.6875 41.0781,237.0313 Q42.4063,235.375 44.9063,235.375 Q45.6094,235.375 46.25,235.5313 Q46.9063,235.6875 47.4688,235.9844 L47.4688,238.7031 Q46.8438,238.125 46.25,237.8594 Q45.6563,237.5781 45.0313,237.5781 Q43.6875,237.5781 43,238.6563 Q42.3125,239.7188 42.3125,241.8125 Q42.3125,243.9063 43,244.9844 Q43.6875,246.0469 45.0313,246.0469 Q45.6563,246.0469 46.25,245.7813 Q46.8438,245.5 47.4688,244.9219 L47.4688,247.6406 Z "/><text fill="#000000" font-family="sans-serif" font-size="12" lengthAdjust="spacingAndGlyphs" textLength="37" x="58.5" y="246.1543">Stripe</text><!--class CacheVol--><rect fill="#FEFECE" filter="url(#fi4eemgy6f5tf)" height="32" id="CacheVol" style="stroke: #A80036; stroke-width: 1.5;" width="90" x="105" y="117"/><ellipse cx="120" cy="133" fill="#ADD1B2" rx="11" ry="11" style="stroke: #A80036; stroke-width: 1.0;"/><path d="M122.9688,138.6406 Q122.3906,138.9375 121.75,139.0781 Q121.1094,139.2344 120.4063,139.2344 Q117.9063,139.2344 116.5781,137.5938 Q115.2656,135.9375 115.2656,132.8125 Q115.2656,129.6875 116.5781,128.0313 Q117.9063,126.375 120.4063,126.375 Q121.1094,126.375 121.75,126.5313 Q122.4063,126.6875 122.9688,126.9844 L122.9688,129.7031 Q122.3438,129.125 121.75,128.8594 Q121.1563,128.5781 120.5313,128.5781 Q119.1875,128.5781 118.5,129.6563 Q117.8125,130.7188 117.8125,132.8125 Q117.8125,134.9063 118.5,135.9844 Q119.1875,137.0469 120.5313,137.0469 Q121.1563,137.0469 121.75,136.7813 Q122.3438,136.5 122.9688,135.9219 L122.9688,138.6406 Z "/><text fill="#000000" font-family="sans-serif" font-size="12" lengthAdjust="spacingAndGlyphs" textLength="58" x="134" y="137.1543">CacheVol</text><!--link CacheHostRecord to Stripe--><path d="M68.46,52.52 C62.71,70.6 55.95,94.91 53,117 C47.8,155.99 55.55,202.21 60.47,225.68 " fill="none" id="CacheHostRecord-Stripe" style="stroke: #A80036; stroke-width: 1.0;"/><polygon fill="#A80036" points="72.58,40.05,66.8987,44.491,68.8129,51.4434,74.4943,47.0024,72.58,40.05" style="stroke: #A80036; stroke-width: 1.0;"/><text fill="#000000" font-family="sans-serif" font-size="13" lengthAdjust="spacingAndGlyphs" textLength="20" x="54" y="137.5669">Vol</text><polygon fill="#000000" points="59.5,146.6328,62.5,152.6328,65.5,146.6328,59.5,146.6328" style="stroke: #000000; stroke-width: 1.0;"/><text fill="#000000" font-family="sans-serif" font-size="13" lengthAdjust="spacingAndGlyphs" textLength="7" x="51.1413" y="214.8785">*</text><!--link CacheHostRecord to CacheVol--><path d="M95.6,51.16 C109.43,71.71 128.22,99.63 139.7,116.7 " fill="none" id="CacheHostRecord-CacheVol" style="stroke: #A80036; stroke-width: 1.0;"/><polygon fill="#A80036" points="88.32,40.33,88.3508,47.541,95.0189,50.2861,94.9882,43.0751,88.32,40.33" style="stroke: #A80036; stroke-width: 1.0;"/><text fill="#000000" font-family="sans-serif" font-size="13" lengthAdjust="spacingAndGlyphs" textLength="15" x="119" y="83.0669">cp</text><polygon fill="#000000" points="122,92.1328,125,98.1328,128,92.1328,122,92.1328" style="stroke: #000000; stroke-width: 1.0;"/><text fill="#000000" font-family="sans-serif" font-size="13" lengthAdjust="spacingAndGlyphs" textLength="7" x="128.1288" y="105.9051">*</text><!--link CacheVol to Stripe--><path d="M129.43,159.59 C112.87,180.19 90.15,208.47 76.3,225.7 " fill="none" id="CacheVol-Stripe" style="stroke: #A80036; stroke-width: 1.0;"/><polygon fill="#A80036" points="137.68,149.33,130.8031,151.4999,130.1612,158.6824,137.038,156.5125,137.68,149.33" style="stroke: #A80036; stroke-width: 1.0;"/><text fill="#000000" font-family="sans-serif" font-size="13" lengthAdjust="spacingAndGlyphs" textLength="20" x="113" y="192.0669">Vol</text><polygon fill="#000000" points="118.5,201.1328,121.5,207.1328,124.5,201.1328,118.5,201.1328" style="stroke: #000000; stroke-width: 1.0;"/><text fill="#000000" font-family="sans-serif" font-size="13" lengthAdjust="spacingAndGlyphs" textLength="7" x="72.215" y="214.9051">*</text><!--
@startuml
hide empty members

CacheHostRecord *- - "*" Stripe : Vol >
CacheHostRecord *- - "*" CacheVol : cp >
CacheVol *- - "*" Stripe : Vol >

@enduml

PlantUML version 1.2018.01(Sun Jan 28 18:08:22 GMT 2018)
(APACHE source distribution)
Java Runtime: OpenJDK Runtime Environment
JVM: OpenJDK 64-Bit Server VM
Java Version: 11.0.9.1+11
Operating System: Linux
OS Version: 5.10.7-200.fc33.x86_64
Default Encoding: UTF-8
Language: en
Country: IE
--></g></svg>