<?xml version="1.0" encoding="UTF-8" standalone="no"?><svg xmlns="http://www.w3.org/2000/svg" xmlns:xlink="http://www.w3.org/1999/xlink" contentScriptType="application/ecmascript" contentStyleType="text/css" height="839px" preserveAspectRatio="none" style="width:1707px;height:839px;" version="1.1" viewBox="0 0 1707 839" width="1707px" zoomAndPan="magnify"><defs><filter height="300%" id="fl4ba9kmguj18" width="300%" x="-1" y="-1"><feGaussianBlur result="blurOut" stdDeviation="2.0"/><feColorMatrix in="blurOut" result="blurOut2" type="matrix" values="0 0 0 0 0 0 0 0 0 0 0 0 0 0 0 0 0 0 .4 0"/><feOffset dx="4.0" dy="4.0" in="blurOut2" result="blurOut3"/><feBlend in="SourceGraphic" in2="blurOut3" mode="normal"/></filter></defs><g><rect fill="#DDFFDD" height="824.5156" style="stroke: #A80036; stroke-width: 1.0;" width="190" x="219.5" y="4"/><text fill="#000000" font-family="sans-serif" font-size="13" font-weight="bold" lengthAdjust="spacingAndGlyphs" textLength="184" x="222.5" y="16.0669">traffic_ctl address space</text><rect fill="#DDDDFF" height="824.5156" style="stroke: #A80036; stroke-width: 1.0;" width="238" x="587" y="4"/><text fill="#000000" font-family="sans-serif" font-size="13" font-weight="bold" lengthAdjust="spacingAndGlyphs" textLength="232" x="590" y="16.0669">traffic_manager address space</text><rect fill="#FFDB99" height="824.5156" style="stroke: #A80036; stroke-width: 1.0;" width="218" x="1023" y="4"/><text fill="#000000" font-family="sans-serif" font-size="13" font-weight="bold" lengthAdjust="spacingAndGlyphs" textLength="212" x="1026" y="16.0669">traffic_server address space</text><line style="stroke: #A80036; stroke-width: 1.0; stroke-dasharray: 5.0,5.0;" x1="26" x2="26" y1="86.2969" y2="742.2188"/><line style="stroke: #A80036; stroke-width: 1.0; stroke-dasharray: 5.0,5.0;" x1="314.5" x2="314.5" y1="86.2969" y2="742.2188"/><line style="stroke: #A80036; stroke-width: 1.0; stroke-dasharray: 5.0,5.0;" x1="509" x2="509" y1="86.2969" y2="742.2188"/><line style="stroke: #A80036; stroke-width: 1.0; stroke-dasharray: 5.0,5.0;" x1="705.5" x2="705.5" y1="86.2969" y2="742.2188"/><line style="stroke: #A80036; stroke-width: 1.0; stroke-dasharray: 5.0,5.0;" x1="912" x2="912" y1="86.2969" y2="742.2188"/><line style="stroke: #A80036; stroke-width: 1.0; stroke-dasharray: 5.0,5.0;" x1="1131.5" x2="1131.5" y1="86.2969" y2="742.2188"/><line style="stroke: #A80036; stroke-width: 1.0; stroke-dasharray: 5.0,5.0;" x1="1478.5" x2="1478.5" y1="86.2969" y2="742.2188"/><text fill="#000000" font-family="sans-serif" font-size="14" lengthAdjust="spacingAndGlyphs" textLength="31" x="8" y="82.9951">user</text><ellipse cx="26.5" cy="13" fill="#FEFECE" filter="url(#fl4ba9kmguj18)" rx="8" ry="8" style="stroke: #A80036; stroke-width: 2.0;"/><path d="M26.5,21 L26.5,48 M13.5,29 L39.5,29 M26.5,48 L13.5,63 M26.5,48 L39.5,63 " fill="none" filter="url(#fl4ba9kmguj18)" style="stroke: #A80036; stroke-width: 2.0;"/><text fill="#000000" font-family="sans-serif" font-size="14" lengthAdjust="spacingAndGlyphs" textLength="31" x="8" y="754.2139">user</text><ellipse cx="26.5" cy="767.5156" fill="#FEFECE" filter="url(#fl4ba9kmguj18)" rx="8" ry="8" style="stroke: #A80036; stroke-width: 2.0;"/><path d="M26.5,775.5156 L26.5,802.5156 M13.5,783.5156 L39.5,783.5156 M26.5,802.5156 L13.5,817.5156 M26.5,802.5156 L39.5,817.5156 " fill="none" filter="url(#fl4ba9kmguj18)" style="stroke: #A80036; stroke-width: 2.0;"/><text fill="#000000" font-family="sans-serif" font-size="14" lengthAdjust="spacingAndGlyphs" textLength="60" x="281.5" y="82.9951">traffic_ctl</text><ellipse cx="314.5" cy="54" fill="#FEFECE" filter="url(#fl4ba9kmguj18)" rx="12" ry="12" style="stroke: #A80036; stroke-width: 2.0;"/><line style="stroke: #A80036; stroke-width: 2.0;" x1="302.5" x2="326.5" y1="68" y2="68"/><text fill="#000000" font-family="sans-serif" font-size="14" lengthAdjust="spacingAndGlyphs" textLength="60" x="281.5" y="754.2139">traffic_ctl</text><ellipse cx="314.5" cy="773.5156" fill="#FEFECE" filter="url(#fl4ba9kmguj18)" rx="12" ry="12" style="stroke: #A80036; stroke-width: 2.0;"/><line style="stroke: #A80036; stroke-width: 2.0;" x1="302.5" x2="326.5" y1="787.5156" y2="787.5156"/><rect fill="#FEFECE" filter="url(#fl4ba9kmguj18)" height="30.2969" style="stroke: #A80036; stroke-width: 1.5;" width="127" x="446" y="47"/><rect fill="#FEFECE" filter="url(#fl4ba9kmguj18)" height="30.2969" style="stroke: #A80036; stroke-width: 1.5;" width="127" x="442" y="51"/><text fill="#000000" font-family="sans-serif" font-size="14" lengthAdjust="spacingAndGlyphs" textLength="113" x="449" y="70.9951">Remote RPC API</text><rect fill="#FEFECE" filter="url(#fl4ba9kmguj18)" height="30.2969" style="stroke: #A80036; stroke-width: 1.5;" width="127" x="446" y="741.2188"/><rect fill="#FEFECE" filter="url(#fl4ba9kmguj18)" height="30.2969" style="stroke: #A80036; stroke-width: 1.5;" width="127" x="442" y="745.2188"/><text fill="#000000" font-family="sans-serif" font-size="14" lengthAdjust="spacingAndGlyphs" textLength="113" x="449" y="765.2139">Remote RPC API</text><text fill="#000000" font-family="sans-serif" font-size="14" lengthAdjust="spacingAndGlyphs" textLength="105" x="650.5" y="82.9951">traffic_manager</text><ellipse cx="706" cy="54" fill="#FEFECE" filter="url(#fl4ba9kmguj18)" rx="12" ry="12" style="stroke: #A80036; stroke-width: 2.0;"/><line style="stroke: #A80036; stroke-width: 2.0;" x1="694" x2="718" y1="68" y2="68"/><text fill="#000000" font-family="sans-serif" font-size="14" lengthAdjust="spacingAndGlyphs" textLength="105" x="650.5" y="754.2139">traffic_manager</text><ellipse cx="706" cy="773.5156" fill="#FEFECE" filter="url(#fl4ba9kmguj18)" rx="12" ry="12" style="stroke: #A80036; stroke-width: 2.0;"/><line style="stroke: #A80036; stroke-width: 2.0;" x1="694" x2="718" y1="787.5156" y2="787.5156"/><rect fill="#FEFECE" filter="url(#fl4ba9kmguj18)" height="30.2969" style="stroke: #A80036; stroke-width: 1.5;" width="107" x="859" y="47"/><rect fill="#FEFECE" filter="url(#fl4ba9kmguj18)" height="30.2969" style="stroke: #A80036; stroke-width: 1.5;" width="107" x="855" y="51"/><text fill="#000000" font-family="sans-serif" font-size="14" lengthAdjust="spacingAndGlyphs" textLength="93" x="862" y="70.9951">Local RPC API</text><rect fill="#FEFECE" filter="url(#fl4ba9kmguj18)" height="30.2969" style="stroke: #A80036; stroke-width: 1.5;" width="107" x="859" y="741.2188"/><rect fill="#FEFECE" filter="url(#fl4ba9kmguj18)" height="30.2969" style="stroke: #A80036; stroke-width: 1.5;" width="107" x="855" y="745.2188"/><text fill="#000000" font-family="sans-serif" font-size="14" lengthAdjust="spacingAndGlyphs" textLength="93" x="862" y="765.2139">Local RPC API</text><text fill="#000000" font-family="sans-serif" font-size="14" lengthAdjust="spacingAndGlyphs" textLength="87" x="1085.5" y="82.9951">traffic_server</text><ellipse cx="1132" cy="54" fill="#FEFECE" filter="url(#fl4ba9kmguj18)" rx="12" ry="12" style="stroke: #A80036; stroke-width: 2.0;"/><line style="stroke: #A80036; stroke-width: 2.0;" x1="1120" x2="1144" y1="68" y2="68"/><text fill="#000000" font-family="sans-serif" font-size="14" lengthAdjust="spacingAndGlyphs" textLength="87" x="1085.5" y="754.2139">traffic_server</text><ellipse cx="1132" cy="773.5156" fill="#FEFECE" filter="url(#fl4ba9kmguj18)" rx="12" ry="12" style="stroke: #A80036; stroke-width: 2.0;"/><line style="stroke: #A80036; stroke-width: 2.0;" x1="1120" x2="1144" y1="787.5156" y2="787.5156"/><text fill="#000000" font-family="sans-serif" font-size="14" lengthAdjust="spacingAndGlyphs" textLength="42" x="1454.5" y="82.9951">plugin</text><ellipse cx="1478.5" cy="54" fill="#FEFECE" filter="url(#fl4ba9kmguj18)" rx="12" ry="12" style="stroke: #A80036; stroke-width: 2.0;"/><line style="stroke: #A80036; stroke-width: 2.0;" x1="1466.5" x2="1490.5" y1="68" y2="68"/><text fill="#000000" font-family="sans-serif" font-size="14" lengthAdjust="spacingAndGlyphs" textLength="42" x="1454.5" y="754.2139">plugin</text><ellipse cx="1478.5" cy="773.5156" fill="#FEFECE" filter="url(#fl4ba9kmguj18)" rx="12" ry="12" style="stroke: #A80036; stroke-width: 2.0;"/><line style="stroke: #A80036; stroke-width: 2.0;" x1="1466.5" x2="1490.5" y1="787.5156" y2="787.5156"/><polygon fill="#A80036" points="1120,128.2969,1130,132.2969,1120,136.2969,1124,132.2969" style="stroke: #A80036; stroke-width: 1.0;"/><line style="stroke: #A80036; stroke-width: 1.0;" x1="706" x2="1126" y1="132.2969" y2="132.2969"/><text fill="#000000" font-family="sans-serif" font-size="13" lengthAdjust="spacingAndGlyphs" textLength="143" x="713" y="112.3638">traffic_server registers</text><text fill="#000000" font-family="sans-serif" font-size="13" lengthAdjust="spacingAndGlyphs" textLength="72" x="713" y="127.4966">callback for</text><text fill="#000000" font-family="monospace" font-size="13" lengthAdjust="spacingAndGlyphs" textLength="208" x="789" y="127.4966">MGMT_EVENT_LIFECYCLE_EVENT</text><polygon fill="#A80036" points="1466.5,157.5625,1476.5,161.5625,1466.5,165.5625,1470.5,161.5625" style="stroke: #A80036; stroke-width: 1.0;"/><line style="stroke: #A80036; stroke-width: 1.0;" x1="1132" x2="1472.5" y1="161.5625" y2="161.5625"/><text fill="#000000" font-family="sans-serif" font-size="13" lengthAdjust="spacingAndGlyphs" textLength="66" x="1139" y="156.6294">register to</text><text fill="#000000" font-family="monospace" font-size="13" lengthAdjust="spacingAndGlyphs" textLength="168" x="1209" y="156.6294">TS_LIFECYCLE_MSG_HOOK</text><polygon fill="#A80036" points="302.5,186.6953,312.5,190.6953,302.5,194.6953,306.5,190.6953" style="stroke: #A80036; stroke-width: 1.0;"/><line style="stroke: #A80036; stroke-width: 1.0;" x1="26.5" x2="308.5" y1="190.6953" y2="190.6953"/><text fill="#000000" font-family="sans-serif" font-size="13" lengthAdjust="spacingAndGlyphs" textLength="206" x="33.5" y="185.7622">"traffic_ctl plugin msg TAG hello"</text><polygon fill="#A80036" points="497.5,220.8281,507.5,224.8281,497.5,228.8281,501.5,224.8281" style="stroke: #A80036; stroke-width: 1.0;"/><line style="stroke: #A80036; stroke-width: 1.0;" x1="314.5" x2="503.5" y1="224.8281" y2="224.8281"/><text fill="#000000" font-family="sans-serif" font-size="13" lengthAdjust="spacingAndGlyphs" textLength="113" x="321.5" y="219.895">lifecycle message</text><path d="M13,203.8281 L13,228.8281 L305,228.8281 L305,213.8281 L295,203.8281 L13,203.8281 " fill="#FBFB77" filter="url(#fl4ba9kmguj18)" style="stroke: #A80036; stroke-width: 1.0;"/><path d="M295,203.8281 L295,213.8281 L305,213.8281 L295,203.8281 " fill="#FBFB77" style="stroke: #A80036; stroke-width: 1.0;"/><text fill="#000000" font-family="sans-serif" font-size="13" lengthAdjust="spacingAndGlyphs" textLength="43" x="19" y="220.895">msd id</text><text fill="#000000" font-family="monospace" font-size="13" lengthAdjust="spacingAndGlyphs" textLength="224" x="66" y="220.895">MGMT_EVENT_LIFECYCLE_MESSAGE</text><line style="stroke: #0000FF; stroke-width: 1.0; stroke-dasharray: 2.0,2.0;" x1="509.5" x2="551.5" y1="259.0938" y2="259.0938"/><line style="stroke: #0000FF; stroke-width: 1.0; stroke-dasharray: 2.0,2.0;" x1="551.5" x2="551.5" y1="259.0938" y2="272.0938"/><line style="stroke: #0000FF; stroke-width: 1.0; stroke-dasharray: 2.0,2.0;" x1="510.5" x2="551.5" y1="272.0938" y2="272.0938"/><polygon fill="#0000FF" points="520.5,268.0938,510.5,272.0938,520.5,276.0938,516.5,272.0938" style="stroke: #0000FF; stroke-width: 1.0;"/><text fill="#0000FF" font-family="sans-serif" font-size="13" font-style="italic" lengthAdjust="spacingAndGlyphs" textLength="115" x="516.5" y="254.0278">serialize message</text><polygon fill="#A80036" points="694,297.0938,704,301.0938,694,305.0938,698,301.0938" style="stroke: #A80036; stroke-width: 1.0;"/><line style="stroke: #A80036; stroke-width: 1.0;" x1="509.5" x2="700" y1="301.0938" y2="301.0938"/><text fill="#000000" font-family="sans-serif" font-size="13" lengthAdjust="spacingAndGlyphs" textLength="113" x="516.5" y="296.1606">sent over sockets</text><path d="M272,314.2266 L272,354.2266 L747,354.2266 L747,324.2266 L737,314.2266 L272,314.2266 " fill="#FBFB77" filter="url(#fl4ba9kmguj18)" style="stroke: #A80036; stroke-width: 1.0;"/><path d="M737,314.2266 L737,324.2266 L747,324.2266 L737,314.2266 " fill="#FBFB77" style="stroke: #A80036; stroke-width: 1.0;"/><text fill="#000000" font-family="sans-serif" font-size="13" lengthAdjust="spacingAndGlyphs" textLength="178" x="371" y="331.2935">Using remote RPC functions</text><text fill="#000000" font-family="monospace" font-size="13" lengthAdjust="spacingAndGlyphs" textLength="264" x="371" y="346.4263">CoreAPIRemote, NetworkUtilsRemote</text><polygon fill="#0000FF" points="900.5,380.4922,910.5,384.4922,900.5,388.4922,904.5,384.4922" style="stroke: #0000FF; stroke-width: 1.0;"/><line style="stroke: #0000FF; stroke-width: 1.0; stroke-dasharray: 2.0,2.0;" x1="706" x2="906.5" y1="384.4922" y2="384.4922"/><text fill="#0000FF" font-family="sans-serif" font-size="13" font-style="italic" lengthAdjust="spacingAndGlyphs" textLength="123" x="713" y="379.5591">serialized message</text><polygon fill="#A80036" points="1120,409.625,1130,413.625,1120,417.625,1124,413.625" style="stroke: #A80036; stroke-width: 1.0;"/><line style="stroke: #A80036; stroke-width: 1.0;" x1="912.5" x2="1126" y1="413.625" y2="413.625"/><text fill="#000000" font-family="sans-serif" font-size="13" lengthAdjust="spacingAndGlyphs" textLength="126" x="919.5" y="408.6919">resent over sockets</text><path d="M657,426.7578 L657,466.7578 L1180,466.7578 L1180,436.7578 L1170,426.7578 L657,426.7578 " fill="#FBFB77" filter="url(#fl4ba9kmguj18)" style="stroke: #A80036; stroke-width: 1.0;"/><path d="M1170,426.7578 L1170,436.7578 L1180,436.7578 L1170,426.7578 " fill="#FBFB77" style="stroke: #A80036; stroke-width: 1.0;"/><text fill="#000000" font-family="sans-serif" font-size="13" lengthAdjust="spacingAndGlyphs" textLength="124" x="808" y="443.8247">Local RPC functions</text><text fill="#000000" font-family="monospace" font-size="13" lengthAdjust="spacingAndGlyphs" textLength="208" x="808" y="458.9575">CoreAPI, NetworkUtilsLocal</text><line style="stroke: #A80036; stroke-width: 1.0;" x1="1132" x2="1174" y1="512.2891" y2="512.2891"/><line style="stroke: #A80036; stroke-width: 1.0;" x1="1174" x2="1174" y1="512.2891" y2="525.2891"/><line style="stroke: #A80036; stroke-width: 1.0;" x1="1133" x2="1174" y1="525.2891" y2="525.2891"/><polygon fill="#A80036" points="1143,521.2891,1133,525.2891,1143,529.2891,1139,525.2891" style="stroke: #A80036; stroke-width: 1.0;"/><text fill="#000000" font-family="sans-serif" font-size="13" lengthAdjust="spacingAndGlyphs" textLength="274" x="1139" y="492.0903">callback function selected based on msg id</text><text fill="#000000" font-family="monospace" font-size="13" lengthAdjust="spacingAndGlyphs" textLength="224" x="1139" y="507.2231">MGMT_EVENT_LIFECYCLE_MESSAGE</text><polygon fill="#0000FF" points="923.5,550.2891,913.5,554.2891,923.5,558.2891,919.5,554.2891" style="stroke: #0000FF; stroke-width: 1.0;"/><line style="stroke: #0000FF; stroke-width: 1.0; stroke-dasharray: 2.0,2.0;" x1="917.5" x2="1131" y1="554.2891" y2="554.2891"/><text fill="#0000FF" font-family="sans-serif" font-size="13" font-style="italic" lengthAdjust="spacingAndGlyphs" textLength="131" x="929.5" y="549.356">unserialize message</text><polygon fill="#A80036" points="1466.5,579.4219,1476.5,583.4219,1466.5,587.4219,1470.5,583.4219" style="stroke: #A80036; stroke-width: 1.0;"/><line style="stroke: #A80036; stroke-width: 1.0;" x1="1132" x2="1472.5" y1="583.4219" y2="583.4219"/><text fill="#000000" font-family="sans-serif" font-size="13" lengthAdjust="spacingAndGlyphs" textLength="149" x="1139" y="578.4888">invoke hook and attach</text><text fill="#000000" font-family="monospace" font-size="13" lengthAdjust="spacingAndGlyphs" textLength="88" x="1292" y="578.4888">TSPluginMsg</text><line style="stroke: #A80036; stroke-width: 1.0;" x1="1478.5" x2="1520.5" y1="627.8203" y2="627.8203"/><line style="stroke: #A80036; stroke-width: 1.0;" x1="1520.5" x2="1520.5" y1="627.8203" y2="640.8203"/><line style="stroke: #A80036; stroke-width: 1.0;" x1="1479.5" x2="1520.5" y1="640.8203" y2="640.8203"/><polygon fill="#A80036" points="1489.5,636.8203,1479.5,640.8203,1489.5,644.8203,1485.5,640.8203" style="stroke: #A80036; stroke-width: 1.0;"/><text fill="#000000" font-family="sans-serif" font-size="13" lengthAdjust="spacingAndGlyphs" textLength="38" x="1485.5" y="607.6216">hooks</text><text fill="#000000" font-family="monospace" font-size="13" lengthAdjust="spacingAndGlyphs" textLength="168" x="1527.5" y="607.6216">TS_LIFECYCLE_MSG_HOOK</text><text fill="#000000" font-family="sans-serif" font-size="13" lengthAdjust="spacingAndGlyphs" textLength="64" x="1485.5" y="622.7544">and reads</text><text fill="#000000" font-family="monospace" font-size="13" lengthAdjust="spacingAndGlyphs" textLength="88" x="1553.5" y="622.7544">TSPluginMsg</text><polygon fill="#008000" points="520.5,678.3867,510.5,682.3867,520.5,686.3867,516.5,682.3867" style="stroke: #008000; stroke-width: 1.0;"/><line style="stroke: #008000; stroke-width: 1.0; stroke-dasharray: 2.0,2.0;" x1="514.5" x2="705" y1="682.3867" y2="682.3867"/><text fill="#008000" font-family="sans-serif" font-size="13" lengthAdjust="spacingAndGlyphs" textLength="72" x="526.5" y="677.4536">TS_ERR_OK</text><path d="M711,653.8203 L711,693.8203 L944,693.8203 L944,663.8203 L934,653.8203 L711,653.8203 " fill="#FBFB77" filter="url(#fl4ba9kmguj18)" style="stroke: #A80036; stroke-width: 1.0;"/><path d="M934,653.8203 L934,663.8203 L944,663.8203 L934,653.8203 " fill="#FBFB77" style="stroke: #A80036; stroke-width: 1.0;"/><text fill="#000000" font-family="sans-serif" font-size="13" lengthAdjust="spacingAndGlyphs" textLength="190" x="717" y="670.8872">traffic_manager has no idea if</text><text fill="#000000" font-family="sans-serif" font-size="13" lengthAdjust="spacingAndGlyphs" textLength="212" x="717" y="686.02">plugin actually received message</text><polygon fill="#A80036" points="325.5,720.0859,315.5,724.0859,325.5,728.0859,321.5,724.0859" style="stroke: #A80036; stroke-width: 1.0;"/><line style="stroke: #A80036; stroke-width: 1.0;" x1="319.5" x2="508.5" y1="724.0859" y2="724.0859"/><text fill="#000000" font-family="sans-serif" font-size="13" lengthAdjust="spacingAndGlyphs" textLength="99" x="331.5" y="719.1528">parse response</text><!--
@startuml

actor user
box "traffic_ctl address space" #DDFFDD
entity traffic_ctl
end box
collections "Remote RPC API" as remote_rpc
box "traffic_manager address space" #DDDDFF
entity traffic_manager
end box
collections "Local RPC API" as local_rpc
box "traffic_server address space" #FFDB99
entity traffic_server
end box
entity plugin

traffic_manager -> traffic_server : traffic_server registers\ncallback for ""MGMT_EVENT_LIFECYCLE_EVENT""
traffic_server -> plugin : register to ""TS_LIFECYCLE_MSG_HOOK""
user -> traffic_ctl : "traffic_ctl plugin msg TAG hello"
traffic_ctl -> remote_rpc : lifecycle message
note left : msd id ""MGMT_EVENT_LIFECYCLE_MESSAGE""
remote_rpc -[#blue]-> remote_rpc : <font color="blue">//serialize message//</font>
remote_rpc -> traffic_manager : sent over sockets
note over traffic_ctl, traffic_manager : Using remote RPC functions\n""CoreAPIRemote, NetworkUtilsRemote""

traffic_manager -[#blue]-> local_rpc: <font color="blue">//serialized message//</font>
local_rpc -> traffic_server : resent over sockets
note over traffic_manager, traffic_server : Local RPC functions\n""CoreAPI, NetworkUtilsLocal""
traffic_server -> traffic_server : callback function selected based on msg id\n""MGMT_EVENT_LIFECYCLE_MESSAGE""
traffic_server -[#blue]-> local_rpc : <font color="blue">//unserialize message//</font>
traffic_server -> plugin : invoke hook and attach ""TSPluginMsg""
plugin -> plugin : hooks ""TS_LIFECYCLE_MSG_HOOK""\nand reads ""TSPluginMsg""
traffic_manager -[#green]-> remote_rpc : <font color="green">TS_ERR_OK</font>
note right : traffic_manager has no idea if\nplugin actually received message
remote_rpc -> traffic_ctl : parse response


@enduml

PlantUML version 1.2018.01(Sun Jan 28 18:08:22 GMT 2018)
(APACHE source distribution)
Java Runtime: OpenJDK Runtime Environment
JVM: OpenJDK 64-Bit Server VM
Java Version: 11.0.9.1+11
Operating System: Linux
OS Version: 5.10.7-200.fc33.x86_64
Default Encoding: UTF-8
Language: en
Country: IE
--></g></svg>