<?xml version="1.0" encoding="UTF-8" standalone="no"?><svg xmlns="http://www.w3.org/2000/svg" xmlns:xlink="http://www.w3.org/1999/xlink" contentScriptType="application/ecmascript" contentStyleType="text/css" height="330px" preserveAspectRatio="none" style="width:506px;height:330px;" version="1.1" viewBox="0 0 506 330" width="506px" zoomAndPan="magnify"><defs><filter height="300%" id="f1i1h6g6rpne4g" width="300%" x="-1" y="-1"><feGaussianBlur result="blurOut" stdDeviation="2.0"/><feColorMatrix in="blurOut" result="blurOut2" type="matrix" values="0 0 0 0 0 0 0 0 0 0 0 0 0 0 0 0 0 0 .4 0"/><feOffset dx="4.0" dy="4.0" in="blurOut2" result="blurOut3"/><feBlend in="SourceGraphic" in2="blurOut3" mode="normal"/></filter></defs><g><!--entity Cloud--><path d="M212.5,128 C212.5,125 214.5,123 217.5,123 C220.5,123 222.5,125 222.5,128 C222.5,125 224.5,123 227.5,123 C230.5,123 232.5,125 232.5,128 C232.5,125 234.5,123 237.5,123 C240.5,123 242.5,125 242.5,128 C242.5,125 244.5,123 247.5,123 C250.5,123 252.5,125 252.5,128 C252.5,125 254.5,123 257.5,123 C260.5,123 262.5,125 262.5,128 C262.5,125 264.5,123 267.5,123 C270.5,123 272.5,125 272.5,128 C272.5,125 274.5,123 277.5,123 C280.5,123 282.5,125 282.5,128 C282.5,125 284.5,123 287.5,123 C290.5,123 292.5,125 292.5,128 C295.5,128 297.5,130 297.5,133 C297.5,136 295.5,138 292.5,138 C295.5,138 297.5,140 297.5,143 C297.5,146 295.5,148 292.5,148 C295.5,148 297.5,150 297.5,153 C297.5,156 295.5,158 292.5,158 C295.5,158 297.5,160 297.5,163 C297.5,166 295.5,168 292.5,168 C295.5,168 297.5,170 297.5,173 C297.5,176 295.5,178 292.5,178 C292.5,181 289.5,183 287.5,183 C284.5,183 282.5,181 282.5,178 C282.5,181 279.5,183 277.5,183 C274.5,183 272.5,181 272.5,178 C272.5,181 269.5,183 267.5,183 C264.5,183 262.5,181 262.5,178 C262.5,181 259.5,183 257.5,183 C254.5,183 252.5,181 252.5,178 C252.5,181 249.5,183 247.5,183 C244.5,183 242.5,181 242.5,178 C242.5,181 239.5,183 237.5,183 C234.5,183 232.5,181 232.5,178 C232.5,181 229.5,183 227.5,183 C224.5,183 222.5,181 222.5,178 C222.5,181 219.5,183 217.5,183 C214.5,183 212.5,181 212.5,178 C209.5,178 207.5,176 207.5,173 C207.5,170 209.5,168 212.5,168 C209.5,168 207.5,166 207.5,163 C207.5,160 209.5,158 212.5,158 C209.5,158 207.5,156 207.5,153 C207.5,150 209.5,148 212.5,148 C209.5,148 207.5,146 207.5,143 C207.5,140 209.5,138 212.5,138 C209.5,138 207.5,136 207.5,133 C207.5,130 209.5,128 212.5,128 " fill="#FEFECE" filter="url(#f1i1h6g6rpne4g)" style="stroke: #000000; stroke-width: 1.5;"/><text fill="#000000" font-family="sans-serif" font-size="14" lengthAdjust="spacingAndGlyphs" textLength="40" x="219.5" y="143.9951">Cloud</text><text fill="#000000" font-family="sans-serif" font-size="14" lengthAdjust="spacingAndGlyphs" textLength="69" x="219.5" y="160.292">Untrusted</text><text fill="#000000" font-family="sans-serif" font-size="14" lengthAdjust="spacingAndGlyphs" textLength="65" x="219.5" y="176.5889">Networks</text><!--entity Ingress ATS--><polygon fill="#FEFECE" filter="url(#f1i1h6g6rpne4g)" points="6,142.5,16,132.5,128,132.5,128,168.7969,118,178.7969,6,178.7969,6,142.5" style="stroke: #000000; stroke-width: 1.5;"/><line style="stroke: #000000; stroke-width: 1.5;" x1="118" x2="127" y1="142.5" y2="133.5"/><line style="stroke: #000000; stroke-width: 1.5;" x1="6" x2="118" y1="142.5" y2="142.5"/><line style="stroke: #000000; stroke-width: 1.5;" x1="118" x2="118" y1="142.5" y2="178.7969"/><text fill="#000000" font-family="sans-serif" font-size="14" lengthAdjust="spacingAndGlyphs" textLength="82" x="21" y="165.4951">Ingress ATS</text><!--entity Peer ATS--><polygon fill="#FEFECE" filter="url(#f1i1h6g6rpne4g)" points="380.5,142.5,390.5,132.5,483.5,132.5,483.5,168.7969,473.5,178.7969,380.5,178.7969,380.5,142.5" style="stroke: #000000; stroke-width: 1.5;"/><line style="stroke: #000000; stroke-width: 1.5;" x1="473.5" x2="482.5" y1="142.5" y2="133.5"/><line style="stroke: #000000; stroke-width: 1.5;" x1="380.5" x2="473.5" y1="142.5" y2="142.5"/><line style="stroke: #000000; stroke-width: 1.5;" x1="473.5" x2="473.5" y1="142.5" y2="178.7969"/><text fill="#000000" font-family="sans-serif" font-size="14" lengthAdjust="spacingAndGlyphs" textLength="63" x="395.5" y="165.4951">Peer ATS</text><!--entity Client--><rect fill="#FEFECE" filter="url(#f1i1h6g6rpne4g)" height="36.2969" style="stroke: #A80036; stroke-width: 1.5;" width="59" x="37.5" y="8"/><rect fill="#FEFECE" height="5" style="stroke: #A80036; stroke-width: 1.5;" width="10" x="32.5" y="13"/><rect fill="#FEFECE" height="5" style="stroke: #A80036; stroke-width: 1.5;" width="10" x="32.5" y="34.2969"/><text fill="#000000" font-family="sans-serif" font-size="14" lengthAdjust="spacingAndGlyphs" textLength="39" x="47.5" y="30.9951">Client</text><!--entity Service--><rect fill="#FEFECE" filter="url(#f1i1h6g6rpne4g)" height="36.2969" style="stroke: #A80036; stroke-width: 1.5;" width="70" x="397" y="8"/><rect fill="#FEFECE" height="5" style="stroke: #A80036; stroke-width: 1.5;" width="10" x="392" y="13"/><rect fill="#FEFECE" height="5" style="stroke: #A80036; stroke-width: 1.5;" width="10" x="392" y="34.2969"/><text fill="#000000" font-family="sans-serif" font-size="14" lengthAdjust="spacingAndGlyphs" textLength="50" x="407" y="30.9951">Service</text><!--entity tls_bridge\nPlugin--><rect fill="#FEFECE" filter="url(#f1i1h6g6rpne4g)" height="52.5938" style="stroke: #A80036; stroke-width: 1.5;" width="87" x="23.5" y="267"/><rect fill="#FEFECE" height="5" style="stroke: #A80036; stroke-width: 1.5;" width="10" x="18.5" y="272"/><rect fill="#FEFECE" height="5" style="stroke: #A80036; stroke-width: 1.5;" width="10" x="18.5" y="309.5938"/><text fill="#000000" font-family="sans-serif" font-size="14" lengthAdjust="spacingAndGlyphs" textLength="67" x="33.5" y="289.9951">tls_bridge</text><text fill="#000000" font-family="sans-serif" font-size="14" lengthAdjust="spacingAndGlyphs" textLength="42" x="33.5" y="306.292">Plugin</text><!--link Client to Ingress ATS--><path d="M67,49.26 C67,70.99 67,104.09 67,127.35 " fill="none" id="Client-Ingress ATS" style="stroke: #A80036; stroke-width: 1.0;"/><polygon fill="#A80036" points="67,132.45,71,123.45,67,127.45,63,123.45,67,132.45" style="stroke: #A80036; stroke-width: 1.0;"/><polygon fill="#A80036" points="67,44.2,63,53.2,67,49.2,71,53.2,67,44.2" style="stroke: #A80036; stroke-width: 1.0;"/><text fill="#000000" font-family="sans-serif" font-size="13" lengthAdjust="spacingAndGlyphs" textLength="61" x="68" y="87.0669">Unsecure</text><!--link Ingress ATS to Cloud--><path d="M133.54,155.5 C156.79,155.5 182.46,155.5 204.11,155.5 " fill="none" id="Ingress ATS-Cloud" style="stroke: #A80036; stroke-width: 1.0;"/><polygon fill="#A80036" points="209.24,155.5,200.24,151.5,204.24,155.5,200.24,159.5,209.24,155.5" style="stroke: #A80036; stroke-width: 1.0;"/><polygon fill="#A80036" points="128.23,155.5,137.23,159.5,133.23,155.5,137.23,151.5,128.23,155.5" style="stroke: #A80036; stroke-width: 1.0;"/><text fill="#000000" font-family="sans-serif" font-size="13" lengthAdjust="spacingAndGlyphs" textLength="45" x="146.25" y="148.5669">Secure</text><!--link Cloud to Peer ATS--><path d="M303.94,155.5 C326.14,155.5 352.4,155.5 375.33,155.5 " fill="none" id="Cloud-Peer ATS" style="stroke: #A80036; stroke-width: 1.0;"/><polygon fill="#A80036" points="380.48,155.5,371.48,151.5,375.48,155.5,371.48,159.5,380.48,155.5" style="stroke: #A80036; stroke-width: 1.0;"/><polygon fill="#A80036" points="298.92,155.5,307.92,159.5,303.92,155.5,307.92,151.5,298.92,155.5" style="stroke: #A80036; stroke-width: 1.0;"/><text fill="#000000" font-family="sans-serif" font-size="13" lengthAdjust="spacingAndGlyphs" textLength="45" x="317" y="148.5669">Secure</text><!--link Service to Peer ATS--><path d="M432,49.26 C432,70.99 432,104.09 432,127.35 " fill="none" id="Service-Peer ATS" style="stroke: #A80036; stroke-width: 1.0;"/><polygon fill="#A80036" points="432,132.45,436,123.45,432,127.45,428,123.45,432,132.45" style="stroke: #A80036; stroke-width: 1.0;"/><polygon fill="#A80036" points="432,44.2,428,53.2,432,49.2,436,53.2,432,44.2" style="stroke: #A80036; stroke-width: 1.0;"/><text fill="#000000" font-family="sans-serif" font-size="13" lengthAdjust="spacingAndGlyphs" textLength="61" x="433" y="87.0669">Unsecure</text><!--link Ingress ATS to tls_bridge\nPlugin--><path d="M67,178.65 C67,201.14 67,236.15 67,261.41 " fill="none" id="Ingress ATS-tls_bridge\nPlugin" style="stroke: #A80036; stroke-width: 1.0; stroke-dasharray: 7.0,7.0;"/><polygon fill="#A80036" points="67,266.64,71,257.64,67,261.64,63,257.64,67,266.64" style="stroke: #A80036; stroke-width: 1.0;"/><text fill="#000000" font-family="sans-serif" font-size="13" lengthAdjust="spacingAndGlyphs" textLength="32" x="68" y="233.0669">Uses</text><!--
@startuml
hide empty members

cloud "Cloud\nUntrusted\nNetworks" as Cloud
node "Ingress ATS"
node "Peer ATS"

[Client] <- -> [Ingress ATS] : Unsecure
[Ingress ATS] <-> [Cloud] : Secure
[Cloud] <-> [Peer ATS] : Secure
[Peer ATS] <-u-> [Service] : Unsecure

[Ingress ATS] ..> [tls_bridge\nPlugin] : Uses

@enduml

PlantUML version 1.2018.01(Sun Jan 28 18:08:22 GMT 2018)
(APACHE source distribution)
Java Runtime: OpenJDK Runtime Environment
JVM: OpenJDK 64-Bit Server VM
Java Version: 11.0.9.1+11
Operating System: Linux
OS Version: 5.10.7-200.fc33.x86_64
Default Encoding: UTF-8
Language: en
Country: IE
--></g></svg>